<svg  viewBox="0 0 78 78" fill="none" xmlns="http://www.w3.org/2000/svg">
<g clip-path="url(#clip0)">
<path d="M71.5 9H49.4C44.877 9 40.9469 11.588 39 15.364C37.0529 11.588 33.123 9 28.6 9H6.49995C5.78295 9 5.19995 9.584 5.19995 10.304V57.261C5.19995 57.982 5.78295 58.565 6.49995 58.565H28.6C33.618 58.565 37.7 62.662 37.7 67.695C37.7 68.0398 37.8369 68.3704 38.0807 68.6142C38.3245 68.858 38.6552 68.995 39 68.995C39.3447 68.995 39.6754 68.858 39.9192 68.6142C40.163 68.3704 40.2999 68.0398 40.2999 67.695C40.2999 62.662 44.3829 58.565 49.4 58.565H71.5C71.671 58.565 71.8404 58.5312 71.9984 58.4657C72.1563 58.4001 72.2998 58.304 72.4206 58.1828C72.5414 58.0617 72.6371 57.9179 72.7021 57.7597C72.7672 57.6015 72.8005 57.4321 72.8 57.261V10.304C72.8 9.584 72.219 9 71.5 9ZM70.2 55.957H49.4C44.877 55.957 40.9469 58.543 39 62.321C37.0529 58.543 33.123 55.957 28.6 55.957H7.79995V11.609H28.6C33.618 11.609 37.7 15.704 37.7 20.739C37.7 21.459 38.282 22.043 39 22.043C39.719 22.043 40.2999 21.459 40.2999 20.739C40.2999 15.704 44.3829 11.609 49.4 11.609H70.2V55.957Z" fill="#284997"/>
<path d="M76.7 16.826H71.5V19.435H75.4V66.39H2.6V19.435H6.5V16.826H1.3C0.582 16.826 0 17.41 0 18.13V67.696C0 68.417 0.582 69 1.3 69H76.7C76.8711 69 77.0404 68.9663 77.1984 68.9007C77.3564 68.8351 77.4999 68.739 77.6207 68.6178C77.7414 68.4967 77.8371 68.3529 77.9022 68.1947C77.9673 68.0365 78.0005 67.8671 78 67.696V18.13C78 17.41 77.42 16.825 76.7 16.825V16.826Z" fill="#284997"/>
<path d="M28.6 61.174H7.79995V57.261H5.19995V62.478C5.19995 63.2 5.78195 63.783 6.49995 63.783H28.6C30.4172 63.7881 32.2085 64.2149 33.8327 65.03C35.4569 65.8451 36.8698 67.0261 37.9599 68.48L40.04 66.912C38.7067 65.136 36.9797 63.6935 34.9946 62.6978C33.0096 61.7022 30.8207 61.1806 28.6 61.174Z" fill="#284997"/>
<path d="M40.2999 20.74H37.7V65.087H40.2999V20.739V20.74Z" fill="#284997"/>
<path d="M70.2 57.261V61.174H49.4C47.179 61.1806 44.9899 61.7024 43.0048 62.6984C41.0197 63.6944 39.2928 65.1375 37.96 66.914L40.04 68.48C41.1303 67.0262 42.5432 65.8454 44.1674 65.0303C45.7916 64.2153 47.5828 63.7883 49.4 63.783H71.5C71.6711 63.783 71.8406 63.7492 71.9986 63.6836C72.1567 63.6179 72.3002 63.5217 72.421 63.4005C72.5418 63.2792 72.6374 63.1353 72.7024 62.977C72.7675 62.8187 72.8006 62.6491 72.8 62.478V57.261H70.2Z" fill="#284997"/>
<path d="M24.7 16.826H11.7V19.435H24.7V16.826Z" fill="#284997"/>
<path d="M32.5 23.348H19.5V25.957H32.5V23.347V23.348Z" fill="#284997"/>
<path d="M16.9 23.348H11.7V25.957H16.9V23.347V23.348Z" fill="#284997"/>
<path d="M32.5 29.87H11.7V32.478H32.5V29.87Z" fill="#284997"/>
<path d="M32.5 42.913H11.7V45.522H32.5V42.913Z" fill="#284997"/>
<path d="M32.5 49.435H11.7V52.044H32.5V49.434V49.435Z" fill="#284997"/>
<path d="M32.5 16.826H27.3V19.435H32.5V16.826Z" fill="#284997"/>
<path d="M24.7 36.391H11.7V39.001H24.7V36.391Z" fill="#284997"/>
<path d="M32.5 36.391H27.3V39.001H32.5V36.391Z" fill="#284997"/>
<path d="M66.3001 49.435H53.3V52.044H66.3001V49.434V49.435Z" fill="#284997"/>
<path d="M58.5 42.913H45.5V45.522H58.5V42.913Z" fill="#284997"/>
<path d="M66.3001 42.913H61.1001V45.522H66.3001V42.913Z" fill="#284997"/>
<path d="M66.3 36.391H45.5V39.001H66.3V36.391Z" fill="#284997"/>
<path d="M66.3 23.348H45.5V25.957H66.3V23.347V23.348Z" fill="#284997"/>
<path d="M50.7 49.435H45.5V52.044H50.7V49.434V49.435Z" fill="#284997"/>
<path d="M66.3001 29.87H53.3V32.478H66.3001V29.87Z" fill="#284997"/>
<path d="M50.7 29.87H45.5V32.478H50.7V29.87Z" fill="#284997"/>
<path d="M66.3 16.826H58.5V19.435H66.3V16.826Z" fill="#284997"/>
<path d="M55.9 16.826H45.5V19.435H55.9V16.826Z" fill="#284997"/>
</g>
<defs>
<clipPath id="clip0">
<rect width="78" height="60" fill="white" transform="translate(0 9)"/>
</clipPath>
</defs>
</svg>
