<svg  viewBox="0 0 78 78" fill="none" xmlns="http://www.w3.org/2000/svg">
<g clip-path="url(#clip0)">
<path d="M41.1822 58.604H29.5832L22.6562 46.952L28.8702 36.52C28.9401 36.4024 28.9862 36.2723 29.0058 36.1369C29.0255 36.0016 29.0182 35.8637 28.9846 35.7312C28.9509 35.5986 28.8915 35.474 28.8097 35.3644C28.7278 35.2548 28.6252 35.1624 28.5077 35.0925C28.3902 35.0225 28.26 34.9765 28.1247 34.9568C27.9893 34.9372 27.8514 34.9444 27.7189 34.9781C27.5863 35.0117 27.4617 35.0712 27.3521 35.153C27.2425 35.2348 27.1501 35.3374 27.0802 35.455L20.5502 46.42C20.4542 46.5808 20.4035 46.7646 20.4033 46.9518C20.4031 47.1391 20.4535 47.323 20.5492 47.484L27.1612 58.604H25.8102C25.2352 58.604 24.7692 59.071 24.7692 59.645V67.959C24.7691 68.0956 24.7959 68.231 24.8481 68.3573C24.9003 68.4836 24.9769 68.5983 25.0734 68.695C25.17 68.7917 25.2847 68.8684 25.411 68.9207C25.5372 68.973 25.6725 69 25.8092 69H29.2302C29.3695 69.0043 29.5083 68.9806 29.6384 68.9302C29.7684 68.8799 29.887 68.8039 29.9871 68.7069C30.0872 68.6098 30.1667 68.4937 30.2211 68.3653C30.2754 68.2369 30.3034 68.0989 30.3034 67.9595C30.3034 67.8201 30.2754 67.6821 30.2211 67.5537C30.1667 67.4253 30.0872 67.3091 29.9871 67.2121C29.887 67.115 29.7684 67.0391 29.6384 66.9887C29.5083 66.9384 29.3695 66.9147 29.2302 66.919H26.8512V60.686H28.9712L28.9912 60.687H41.1812C41.3179 60.6872 41.4534 60.6605 41.5798 60.6084C41.7062 60.5562 41.8211 60.4797 41.9179 60.3831C42.0147 60.2865 42.0914 60.1717 42.1438 60.0454C42.1962 59.9191 42.2232 59.7837 42.2232 59.647V59.645C42.2232 59.5083 42.1963 59.373 42.1439 59.2468C42.0916 59.1205 42.0149 59.0058 41.9182 58.9092C41.8215 58.8126 41.7068 58.7361 41.5805 58.6839C41.4542 58.6317 41.3188 58.6048 41.1822 58.605V58.604Z" fill="#284997"/>
<path d="M71.988 43.54H69.735C69.505 35.894 66.655 28.609 61.648 22.927C58.39 19.229 54.388 16.396 49.967 14.596H64.637C65.124 16.427 66.755 17.777 68.688 17.777C71.004 17.777 72.888 15.84 72.888 13.457C72.888 11.077 71.004 9.139 68.688 9.139C66.688 9.139 65.01 10.585 64.59 12.514H42.645V10.041C42.645 9.466 42.192 9 41.633 9H35.255C34.695 9 34.243 9.466 34.243 10.04V12.514H12.297C11.877 10.585 10.2 9.14 8.2 9.14C5.884 9.139 4 11.076 4 13.458C4 15.84 5.884 17.778 8.2 17.778C10.133 17.778 11.764 16.427 12.25 14.596H26.921C22.5 16.396 18.498 19.229 15.24 22.926C10.233 28.608 7.383 35.894 7.153 43.54H5.012C4.453 43.54 4 44.005 4 44.58V51.14C4 51.715 4.453 52.181 5.012 52.181H11.39C11.948 52.181 12.401 51.715 12.401 51.141V44.581C12.401 44.005 11.948 43.54 11.39 43.54H9.178C9.408 36.412 12.07 29.622 16.739 24.324C21.339 19.104 27.519 15.728 34.243 14.734V16.601C34.243 17.176 34.696 17.641 35.255 17.641H36.743L28.516 31.852C28.3781 32.089 28.3377 32.3704 28.4034 32.6367C28.4691 32.903 28.6357 33.1333 28.868 33.279C28.9822 33.3486 29.1093 33.3944 29.2416 33.4138C29.374 33.4333 29.5088 33.4259 29.6383 33.3921C29.7677 33.3583 29.889 33.2989 29.9949 33.2172C30.1009 33.1356 30.1893 33.0335 30.255 32.917L37.432 20.519V39.787C35.689 40.25 34.397 41.882 34.397 43.817C34.397 46.113 36.212 47.98 38.444 47.98C40.676 47.98 42.491 46.113 42.491 43.817C42.491 41.882 41.2 40.25 39.456 39.787V20.519L54.758 46.952L48.025 58.605H44.182C44.047 58.6064 43.9136 58.6346 43.7895 58.6878C43.6654 58.7411 43.553 58.8183 43.459 58.9152C43.3649 59.0121 43.2909 59.1266 43.2413 59.2522C43.1917 59.3778 43.1675 59.512 43.17 59.647C43.17 60.221 43.623 60.687 44.182 60.687H48.6L48.621 60.686H50.681V66.919H32.566C32.007 66.919 31.554 67.385 31.554 67.959C31.554 68.534 32.007 69 32.566 69H51.692C52.25 69 52.704 68.534 52.704 67.96V59.645C52.704 59.07 52.25 58.605 51.692 58.605H50.38L56.805 47.484C56.995 47.156 56.995 46.747 56.805 46.419L40.145 17.642H41.633C42.193 17.642 42.645 17.176 42.645 16.601V14.734C49.369 15.728 55.55 19.104 60.149 24.324C64.818 29.622 67.481 36.412 67.709 43.54H65.609C65.05 43.54 64.597 44.005 64.597 44.58V51.14C64.597 51.715 65.05 52.181 65.609 52.181H71.988C72.547 52.181 73 51.715 73 51.141V44.581C73 44.005 72.547 43.54 71.988 43.54ZM68.688 11.22C69.888 11.22 70.864 12.224 70.864 13.458C70.864 14.692 69.888 15.696 68.688 15.696C67.488 15.696 66.512 14.692 66.512 13.458C66.512 12.224 67.488 11.22 68.688 11.22ZM8.2 15.696C7 15.696 6.024 14.692 6.024 13.458C6.024 12.224 7 11.22 8.2 11.22C9.4 11.22 10.376 12.224 10.376 13.458C10.376 14.692 9.4 15.696 8.2 15.696ZM10.379 45.62V50.1H6.024V45.62H10.379ZM40.468 43.816C40.468 44.964 39.56 45.897 38.444 45.897C37.328 45.897 36.421 44.964 36.421 43.817C36.421 42.669 37.328 41.736 38.444 41.736C39.56 41.736 40.467 42.669 40.467 43.816H40.468ZM40.621 13.55V15.56H36.267V11.081H40.621V13.551V13.55ZM70.976 50.1H66.621V45.62H70.976V50.1Z" fill="#284997"/>
</g>
<defs>
<clipPath id="clip0">
<rect width="69" height="60" fill="white" transform="translate(4 9)"/>
</clipPath>
</defs>
</svg>
