<?xml version="1.0" encoding="UTF-8"?><!DOCTYPE svg PUBLIC "-//W3C//DTD SVG 1.1//EN" "http://www.w3.org/Graphics/SVG/1.1/DTD/svg11.dtd"><svg xmlns="http://www.w3.org/2000/svg" xmlns:xlink="http://www.w3.org/1999/xlink"><defs><clipPath id="clip0"><path fill="#fff" d="M0 0h26v26H0z"/></clipPath></defs><symbol id="icon--fb" viewBox="0 0 26 26"><path d="M19.499.005L16.127 0C12.34 0 9.892 2.511 9.892 6.399v2.95h-3.39a.53.53 0 00-.53.53v4.275c0 .293.237.53.53.53h3.39V25.47c0 .293.237.53.53.53h4.423a.53.53 0 00.53-.53V14.684h3.964a.53.53 0 00.53-.53l.001-4.275a.53.53 0 00-.53-.53h-3.965V6.848c0-1.202.286-1.812 1.852-1.812l2.271-.001a.53.53 0 00.53-.53V.535a.53.53 0 00-.529-.53z" fill="#7C7C7C"/></symbol><symbol id="icon--tw" viewBox="0 0 26 26"><path d="M26 5.574c-.928.412-1.924.69-2.97.815a5.194 5.194 0 002.274-2.86 10.427 10.427 0 01-3.287 1.256A5.172 5.172 0 0013.204 9.5a14.684 14.684 0 01-10.66-5.403 5.133 5.133 0 00-.7 2.6A5.17 5.17 0 004.146 11a5.173 5.173 0 01-2.343-.649v.065a5.177 5.177 0 004.149 5.071c-.434.117-.89.181-1.363.181-.334 0-.657-.033-.974-.096a5.175 5.175 0 004.83 3.592c-1.769 1.387-4 2.21-6.423 2.21-.417 0-.828-.024-1.233-.07a14.619 14.619 0 007.928 2.327c9.514 0 14.714-7.88 14.714-14.715l-.017-.67A10.328 10.328 0 0026 5.574z" fill="#7C7C7C"/></symbol><symbol id="icon--vk" viewBox="0 0 26 26"><g clip-path="url(#clip0)"><path d="M25.862 18.98a1.794 1.794 0 00-.088-.17c-.451-.812-1.313-1.809-2.585-2.991l-.027-.027-.014-.014-.014-.013h-.013c-.578-.55-.943-.92-1.096-1.11-.28-.361-.343-.727-.19-1.097.108-.28.514-.87 1.218-1.773.37-.479.663-.862.88-1.15 1.561-2.077 2.238-3.403 2.03-3.98l-.08-.136c-.054-.081-.194-.155-.42-.223-.226-.068-.514-.079-.866-.034l-3.899.027a.506.506 0 00-.27.007l-.177.04-.068.034-.053.041a.603.603 0 00-.15.142.928.928 0 00-.134.237 22.112 22.112 0 01-1.45 3.046 28.76 28.76 0 01-.92 1.455c-.28.41-.514.713-.703.907-.19.194-.361.35-.515.467-.153.118-.27.167-.352.149a10.25 10.25 0 01-.23-.054.901.901 0 01-.305-.332 1.484 1.484 0 01-.155-.528 5.78 5.78 0 01-.048-.548 11.41 11.41 0 01.007-.65c.01-.28.014-.47.014-.569 0-.343.006-.715.02-1.116.014-.402.024-.72.034-.955.009-.234.013-.483.013-.744 0-.262-.016-.467-.047-.616a2.108 2.108 0 00-.142-.433.73.73 0 00-.277-.325 1.564 1.564 0 00-.454-.183c-.478-.108-1.087-.167-1.828-.176-1.678-.018-2.757.09-3.235.325-.19.1-.361.235-.514.406-.163.199-.185.307-.068.325.541.08.925.275 1.15.582l.082.162c.063.118.126.325.19.623.063.298.103.627.121.988.045.659.045 1.223 0 1.692a20 20 0 01-.129 1.097c-.04.261-.101.474-.182.636a2.682 2.682 0 01-.163.298.232.232 0 01-.067.067c-.118.045-.24.068-.366.068s-.28-.063-.46-.19c-.18-.126-.368-.3-.562-.52a6.97 6.97 0 01-.657-.928 16.187 16.187 0 01-.758-1.408l-.216-.392c-.135-.253-.32-.62-.555-1.104-.235-.482-.442-.95-.623-1.4a.892.892 0 00-.325-.434l-.067-.04a.926.926 0 00-.217-.116c-.1-.04-.203-.07-.311-.088l-3.71.027c-.378 0-.636.086-.771.258l-.054.08A.438.438 0 000 6.817c0 .1.027.222.081.366a44.67 44.67 0 001.767 3.682c.636 1.182 1.189 2.135 1.658 2.856.47.722.948 1.404 1.435 2.044.487.641.81 1.052.968 1.232.158.18.282.316.372.406l.339.325c.216.217.534.476.954.778.42.303.884.6 1.394.894.51.293 1.104.532 1.78.717.677.186 1.336.26 1.977.224h1.557c.316-.027.555-.127.717-.298l.054-.068a.894.894 0 00.102-.25c.031-.113.047-.237.047-.372-.01-.388.02-.738.088-1.05.067-.31.144-.545.23-.703a1.727 1.727 0 01.522-.596.904.904 0 01.107-.047c.217-.072.472-.002.766.21.293.212.568.474.826.785.257.312.566.661.927 1.05.36.387.677.676.947.866l.27.162c.182.108.416.208.705.298.288.09.541.113.758.068l3.465-.054c.343 0 .61-.057.799-.17.19-.113.302-.237.339-.372.036-.135.038-.289.006-.46a1.7 1.7 0 00-.095-.36z" fill="#7C7C7C"/></g></symbol></svg>