<svg  viewBox="0 0 78 78" fill="none" xmlns="http://www.w3.org/2000/svg">
<g clip-path="url(#clip0)">
<path d="M48.642 9H10.889C10.7721 9.00013 10.6564 9.02328 10.5485 9.06813C10.4406 9.11298 10.3425 9.17864 10.26 9.26138C10.1774 9.34412 10.112 9.44231 10.0674 9.55034C10.0228 9.65837 9.99987 9.77412 10 9.891V68.11C10 68.3459 10.0936 68.5721 10.2603 68.739C10.427 68.9058 10.6531 68.9997 10.889 69H15.11C15.227 69 15.3428 68.9769 15.4508 68.9322C15.5589 68.8874 15.657 68.8217 15.7397 68.739C15.8223 68.6562 15.8879 68.558 15.9325 68.4499C15.9772 68.3418 16.0001 68.226 16 68.109C16.0001 67.9921 15.9772 67.8764 15.9326 67.7683C15.888 67.6603 15.8226 67.5621 15.74 67.4794C15.6575 67.3966 15.5594 67.331 15.4515 67.2861C15.3436 67.2413 15.2279 67.2181 15.111 67.218H11.777V10.782H47.753V13.157C47.7473 13.2773 47.7661 13.3975 47.8082 13.5103C47.8503 13.6231 47.9148 13.7263 47.9979 13.8134C48.0811 13.9006 48.181 13.9699 48.2917 14.0173C48.4024 14.0647 48.5216 14.0892 48.642 14.0892C48.7624 14.0892 48.8816 14.0647 48.9923 14.0173C49.103 13.9699 49.2029 13.9006 49.2861 13.8134C49.3692 13.7263 49.4337 13.6231 49.4758 13.5103C49.5179 13.3975 49.5367 13.2773 49.531 13.157V9.891C49.5311 9.77412 49.5082 9.65837 49.4636 9.55034C49.419 9.44231 49.3536 9.34412 49.271 9.26138C49.1885 9.17864 49.0904 9.11298 48.9825 9.06813C48.8746 9.02328 48.7589 9.00013 48.642 9V9Z" fill="#284997"/>
<path d="M48.6421 63.055C48.5251 63.0551 48.4093 63.0783 48.3013 63.1232C48.1933 63.1681 48.0953 63.2339 48.0127 63.3167C47.9301 63.3996 47.8647 63.4979 47.8202 63.606C47.7756 63.7142 47.7528 63.83 47.7531 63.947V67.217H18.0731C17.9561 67.2171 17.8403 67.2403 17.7323 67.2852C17.6243 67.3301 17.5263 67.3959 17.4437 67.4787C17.3611 67.5616 17.2957 67.6599 17.2512 67.768C17.2066 67.8762 17.1838 67.992 17.1841 68.109C17.184 68.2259 17.2068 68.3416 17.2514 68.4497C17.2961 68.5577 17.3615 68.6559 17.4441 68.7386C17.5266 68.8213 17.6246 68.887 17.7326 68.9319C17.8405 68.9767 17.9562 68.9999 18.0731 69H48.6421C48.759 68.9999 48.8747 68.9767 48.9826 68.9319C49.0905 68.887 49.1886 68.8213 49.2711 68.7386C49.3537 68.6559 49.4191 68.5577 49.4637 68.4497C49.5083 68.3416 49.5312 68.2259 49.5311 68.109V63.946C49.5311 63.8291 49.5081 63.7134 49.4633 63.6054C49.4186 63.4974 49.3531 63.3993 49.2704 63.3167C49.1878 63.234 49.0896 63.1685 48.9817 63.1237C48.8737 63.079 48.758 63.056 48.6411 63.056L48.6421 63.055Z" fill="#284997"/>
<path d="M67.1111 46.067C66.8754 46.0675 66.6496 46.1615 66.4831 46.3284C66.3166 46.4952 66.2231 46.7213 66.2231 46.957V52.897H55.5731C55.3367 52.897 55.1099 52.9909 54.9428 53.1581C54.7756 53.3253 54.6816 53.5521 54.6816 53.7885C54.6816 54.025 54.7756 54.2517 54.9428 54.4189C55.1099 54.5861 55.3367 54.68 55.5731 54.68H67.1111C67.228 54.6799 67.3437 54.6567 67.4517 54.6119C67.5596 54.567 67.6576 54.5014 67.7402 54.4186C67.8227 54.3359 67.8882 54.2377 67.9328 54.1297C67.9774 54.0217 68.0003 53.9059 68.0001 53.789V46.958C68.0003 46.8411 67.9774 46.7254 67.9328 46.6174C67.8882 46.5093 67.8227 46.4111 67.7402 46.3284C67.6576 46.2457 67.5596 46.18 67.4517 46.1351C67.3437 46.0903 67.228 46.0671 67.1111 46.067Z" fill="#284997"/>
<path d="M67.1109 15.042H38.0809C37.964 15.0421 37.8483 15.0653 37.7404 15.1101C37.6325 15.155 37.5344 15.2206 37.4519 15.3034C37.3693 15.3861 37.3039 15.4843 37.2593 15.5923C37.2147 15.7004 37.1918 15.8161 37.1919 15.933V29.255C37.2051 29.4817 37.3044 29.6948 37.4696 29.8507C37.6348 30.0065 37.8533 30.0933 38.0804 30.0933C38.3075 30.0933 38.526 30.0065 38.6912 29.8507C38.8564 29.6948 38.9557 29.4817 38.9689 29.255V16.825H66.2219V43.987C66.2216 44.104 66.2445 44.22 66.2891 44.3282C66.3337 44.4364 66.3992 44.5348 66.4819 44.6176C66.5645 44.7005 66.6627 44.7662 66.7708 44.8111C66.879 44.8559 66.9949 44.879 67.1119 44.879C67.6019 44.879 67.9999 44.479 67.9999 43.987V15.933C67.9999 15.6971 67.9063 15.4709 67.7396 15.304C67.5729 15.1371 67.3468 15.0433 67.1109 15.043V15.042Z" fill="#284997"/>
<path d="M52.6102 31.017H33.7352C33.6183 31.0173 33.5026 31.0406 33.3947 31.0855C33.2869 31.1305 33.1889 31.1963 33.1064 31.2791C33.024 31.3619 32.9586 31.4602 32.9142 31.5683C32.8697 31.6764 32.8469 31.7922 32.8472 31.909V61.017C32.8469 61.1339 32.8697 61.2497 32.9142 61.3578C32.9586 61.4659 33.024 61.5641 33.1064 61.6469C33.1889 61.7298 33.2869 61.7955 33.3947 61.8405C33.5026 61.8855 33.6183 61.9088 33.7352 61.909H52.6122C52.7291 61.9089 52.8449 61.8857 52.9529 61.8408C53.0609 61.7959 53.159 61.7301 53.2416 61.6473C53.3241 61.5645 53.3895 61.4661 53.4341 61.358C53.4786 61.2499 53.5014 61.134 53.5012 61.017V31.91C53.5014 31.793 53.4786 31.677 53.434 31.5688C53.3894 31.4606 53.3239 31.3623 53.2412 31.2794C53.1585 31.1966 53.0603 31.1308 52.9522 31.086C52.8441 31.0411 52.7282 31.018 52.6112 31.018L52.6102 31.017ZM51.7222 60.127H34.6232V32.8H51.7232V60.126L51.7222 60.127Z" fill="#284997"/>
<path d="M20.8939 22.169V22.149L18.4099 14.017C18.3129 13.727 18.0169 13.54 17.6539 13.54C17.2869 13.54 17.0009 13.725 16.9079 14.023L14.4299 22.092C14.3999 22.167 14.3999 22.239 14.3999 22.276C14.3999 22.653 14.7869 22.906 15.1479 22.906C15.4419 22.906 15.6749 22.742 15.7419 22.487L16.2229 20.871H19.0699L19.5559 22.501C19.6389 22.751 19.8609 22.907 20.1339 22.907C20.4989 22.907 20.9049 22.643 20.9049 22.264C20.9046 22.232 20.9006 22.2001 20.8929 22.169H20.8939ZM16.6039 19.599L17.6529 16.128L18.6919 19.599H16.6049H16.6039Z" fill="#284997"/>
<path d="M26.0778 17.98C26.5308 17.551 26.7818 16.859 26.7818 16.003C26.7818 14.438 25.9278 13.611 24.3128 13.611C22.2428 13.611 21.6898 15.003 21.6898 15.825C21.6898 16.147 21.7628 16.575 22.3898 16.575C22.8068 16.575 23.0658 16.315 23.0658 15.896C23.0658 15.531 23.2258 14.919 24.2888 14.919C25.1098 14.919 25.4288 15.267 25.4288 16.158C25.4288 16.954 25.2398 17.385 24.2418 17.385C23.8978 17.385 23.6488 17.655 23.6488 18.027C23.6488 18.398 23.8978 18.657 24.2538 18.657C25.1888 18.657 25.6438 19.077 25.6438 19.943V20.169C25.6438 21.199 25.2068 21.658 24.2298 21.658C22.8908 21.658 22.8518 20.738 22.8518 20.634C22.8518 20.239 22.5908 20.004 22.1518 20.004C21.7058 20.004 21.4878 20.237 21.4878 20.717C21.4878 21.813 22.4538 22.978 24.2418 22.978C26.0068 22.978 27.0188 21.954 27.0188 20.169V19.943C27.0188 19.068 26.6958 18.399 26.0788 17.981L26.0778 17.98Z" fill="#284997"/>
<path d="M58.3949 27.872V27.852L55.9099 19.72C55.8139 19.43 55.5169 19.243 55.1539 19.243C54.7869 19.243 54.5009 19.427 54.4079 19.726L51.9309 27.794C51.9019 27.87 51.9019 27.942 51.9019 27.979C51.9019 28.356 52.2879 28.609 52.6489 28.609C52.9439 28.609 53.1759 28.445 53.2429 28.19L53.7249 26.574H56.5719L57.0579 28.204C57.1409 28.454 57.3619 28.61 57.6349 28.61C57.9999 28.61 58.4059 28.346 58.4059 27.967C58.4058 27.935 58.4021 27.9031 58.3949 27.872ZM54.1049 25.302L55.1529 21.831L56.1929 25.301H54.1049V25.302Z" fill="#284997"/>
<path d="M63.8082 25.218H63.4512V23.218C63.4512 22.873 63.1622 22.623 62.7632 22.623C62.3652 22.623 62.0762 22.873 62.0762 23.218V25.218H60.5272L63.0522 20.221L63.0622 20.197C63.0984 20.1133 63.1178 20.0233 63.1192 19.932C63.1192 19.568 62.7632 19.314 62.4432 19.314C62.3108 19.3141 62.1811 19.3517 62.0693 19.4225C61.9574 19.4933 61.8679 19.5944 61.8112 19.714L58.8352 25.6C58.7774 25.7057 58.7484 25.8246 58.7512 25.945C58.7512 26.303 59.0062 26.563 59.3562 26.563H62.0762V28.004C62.0762 28.35 62.3712 28.611 62.7632 28.611C63.1562 28.611 63.4512 28.35 63.4512 28.004V26.564H63.8082C64.1352 26.564 64.4012 26.259 64.4012 25.885C64.4012 25.505 64.1462 25.219 63.8082 25.219V25.218Z" fill="#284997"/>
<path d="M42.932 44.089V44.069L40.448 35.937C40.352 35.647 40.055 35.46 39.692 35.46C39.325 35.46 39.039 35.644 38.946 35.943L36.469 44.011C36.439 44.087 36.439 44.159 36.439 44.196C36.439 44.573 36.826 44.826 37.187 44.826C37.481 44.826 37.714 44.662 37.781 44.407L38.263 42.791H41.109L41.595 44.421C41.6346 44.542 41.7123 44.6469 41.8165 44.7201C41.9207 44.7932 42.0457 44.8308 42.173 44.827C42.538 44.827 42.944 44.563 42.944 44.184C42.9436 44.152 42.9396 44.1201 42.932 44.089ZM38.642 41.519L39.691 38.048L40.731 41.518H38.643L38.642 41.519Z" fill="#284997"/>
<path d="M46.2919 39.114H45.3149L45.4649 36.851H48.0609C48.3889 36.851 48.6189 36.577 48.6189 36.185C48.6189 35.806 48.3839 35.531 48.0609 35.531H44.7369C44.6269 35.531 44.2629 35.571 44.1939 36.087L43.9539 39.533V39.553C43.9539 39.574 43.9509 39.614 43.9489 39.654C43.9452 39.6999 43.9428 39.7459 43.9419 39.792C43.9419 39.971 44.0109 40.387 44.6419 40.387H46.2919C47.2189 40.387 47.6699 40.866 47.6699 41.851V42.078C47.6699 43.088 47.2149 43.578 46.2799 43.578C45.6449 43.578 44.9029 43.3 44.9029 42.518C44.9029 42.213 44.7189 41.888 44.2029 41.888C43.7859 41.888 43.5269 42.152 43.5269 42.578C43.5269 43.695 44.3919 44.898 46.2919 44.898C48.0419 44.898 49.0459 43.87 49.0459 42.078V41.851C49.0459 40.086 48.0679 39.114 46.2919 39.114Z" fill="#284997"/>
</g>
<defs>
<clipPath id="clip0">
<rect width="58" height="60" fill="white" transform="translate(10 9)"/>
</clipPath>
</defs>
</svg>
